<?xml version="1.0" encoding="UTF-8"?>
<svg width="26px" height="26px" viewBox="0 0 26 26" version="1.1" xmlns="http://www.w3.org/2000/svg" xmlns:xlink="http://www.w3.org/1999/xlink">
    <!-- Generator: sketchtool 52.5 (67469) - http://www.bohemiancoding.com/sketch -->
    <title>42DE0E3F-D324-498E-8772-A02D12D025BA</title>
    <desc>Created with sketchtool.</desc>
    <g id="---Desktop" stroke="none" stroke-width="1" fill="none" fill-rule="evenodd">
        <g id="Landing-page2" transform="translate(-1395.000000, -414.000000)" fill="#00BBEC">
            <g id="socialn-icons" transform="translate(1395.000000, 373.000000)">
                <g id="fb" transform="translate(0.000000, 41.000000)">
                    <path d="M13.0101563,0.040625 C16.5953125,0.040625 19.8402344,1.49296875 22.1863281,3.84414062 C24.5375,6.1953125 25.9898438,9.43515625 25.9898438,13.0203125 C25.9898438,16.6054687 24.5375,19.8453125 22.1863281,22.1964844 C19.8351563,24.5476562 16.5953125,26 13.0101563,26 C9.425,26 6.18515625,24.5476562 3.83398438,22.1964844 C1.47773438,19.8503906 0.03046875,16.6054687 0.03046875,13.0203125 C0.03046875,9.43515625 1.4828125,6.1953125 3.83398438,3.84414062 C6.18007813,1.49296875 9.41992188,0.040625 13.0101563,0.040625 Z M21.4753906,4.56015625 C19.3070313,2.396875 16.3160156,1.05117187 13.0101563,1.05117187 C9.70429688,1.05117187 6.71328125,2.396875 4.55,4.56015625 C2.38671875,6.7234375 1.04101563,9.71445312 1.04101563,13.0203125 C1.04101563,16.3261719 2.38671875,19.3171875 4.55,21.4855469 C6.71328125,23.6488281 9.70429688,24.984375 13.0101563,24.984375 C16.3160156,24.984375 19.3070313,23.6488281 21.4753906,21.4855469 C23.6386719,19.3171875 24.9742187,16.3261719 24.9742187,13.0203125 C24.9742188,9.71445312 23.6386719,6.7234375 21.4753906,4.56015625 Z" id="Shape" fill-rule="nonzero"></path>
                    <path d="M14.0003906,10.3695312 L14.0003906,9.30820312 C14.0003906,8.80039062 14.340625,8.6734375 14.584375,8.6734375 C14.8230469,8.6734375 16.0722656,8.6734375 16.0722656,8.6734375 L16.0722656,6.40351562 L14.0257812,6.40351562 C11.7457031,6.40351562 11.2378906,8.084375 11.2378906,9.17617187 L11.2378906,10.3695312 L9.91757812,10.3695312 L9.91757812,11.9742187 L9.91757812,13.0253906 L11.253125,13.0253906 C11.253125,16.0367188 11.253125,19.6523438 11.253125,19.6523438 L13.9039063,19.6523438 C13.9039063,19.6523438 13.9039063,15.9859375 13.9039063,13.0253906 L15.8640625,13.0253906 L15.9503906,11.984375 L16.1078125,10.3746094 L14.0003906,10.3746094 L14.0003906,10.3695312 Z" id="Path"></path>
                </g>
            </g>
        </g>
    </g>
</svg>