<?xml version="1.0" encoding="UTF-8"?>
<svg width="26px" height="26px" viewBox="0 0 26 26" version="1.1" xmlns="http://www.w3.org/2000/svg" xmlns:xlink="http://www.w3.org/1999/xlink">
    <!-- Generator: sketchtool 52.5 (67469) - http://www.bohemiancoding.com/sketch -->
    <title>D99CF1A2-6721-40D4-B21F-F3C97898D58D</title>
    <desc>Created with sketchtool.</desc>
    <g id="---Desktop" stroke="none" stroke-width="1" fill="none" fill-rule="evenodd">
        <g id="Landing-page2" transform="translate(-1395.000000, -455.000000)" fill="#00BBEC">
            <g id="socialn-icons" transform="translate(1395.000000, 373.000000)">
                <g id="in" transform="translate(0.000000, 82.000000)">
                    <path d="M13,0 C16.5902344,0 19.8402344,1.45234375 22.1914062,3.80859375 C24.5476562,6.16484375 26,9.40976563 26,13 C26,16.5902344 24.5476562,19.8402344 22.1914062,22.1914062 C19.8351563,24.5476562 16.5902344,26 13,26 C9.40976563,26 6.15976563,24.5476562 3.80859375,22.1914062 C1.45234375,19.8402344 0,16.5902344 0,13 C0,9.40976563 1.45234375,6.15976563 3.80859375,3.80859375 C6.15976562,1.45234375 9.40976563,0 13,0 Z M21.4703125,4.5296875 C19.3070313,2.35625 16.3109375,1.015625 13,1.015625 C9.6890625,1.015625 6.69296875,2.35625 4.5296875,4.5296875 C2.35625,6.69296875 1.015625,9.6890625 1.015625,13 C1.015625,16.3109375 2.35625,19.3070313 4.5296875,21.4703125 C6.69296875,23.64375 9.6890625,24.984375 13,24.984375 C16.3109375,24.984375 19.3070313,23.64375 21.4703125,21.4703125 C23.64375,19.3070313 24.984375,16.3109375 24.984375,13 C24.984375,9.6890625 23.64375,6.69296875 21.4703125,4.5296875 Z" id="Shape" fill-rule="nonzero"></path>
                    <path d="M7.13476562,13.121875 L7.13476562,18.8652344 L9.871875,18.8652344 L9.871875,12.6546875 L9.871875,11.0398437 L7.13476562,11.0398437 L7.13476562,13.121875 Z M18.8042969,13.446875 C18.6265625,11.9640625 17.9460938,11.0449219 15.9453125,11.0449219 C14.7722656,11.0449219 13.9800781,11.4765625 13.65,12.1011719 L13.609375,12.1011719 L13.609375,11.0449219 L11.4257812,11.0449219 L11.4257812,12.5480469 L11.4257812,18.8703125 L13.7109375,18.8703125 L13.7109375,14.990625 C13.7109375,13.9699219 13.9140625,12.9847656 15.1632813,12.9847656 C16.4226563,12.9847656 16.5140625,14.1527344 16.5140625,15.0667969 L16.5140625,18.8753906 L18.8601563,18.8753906 L18.8601563,14.5792969 C18.8652344,14.1679688 18.8449219,13.7921875 18.8042969,13.446875 Z M8.50078125,7.13476562 C7.74414062,7.13476562 7.13476562,7.74414062 7.13476562,8.50078125 C7.13476562,9.25742188 7.74921875,9.86679688 8.50078125,9.86679688 C9.25742188,9.86679688 9.86679688,9.25742188 9.86679688,8.50078125 C9.86679688,7.74414062 9.25742188,7.13476562 8.50078125,7.13476562 Z" id="Shape"></path>
                </g>
            </g>
        </g>
    </g>
</svg>