<?xml version="1.0" encoding="UTF-8"?>
<svg width="26px" height="26px" viewBox="0 0 26 26" version="1.1" xmlns="http://www.w3.org/2000/svg" xmlns:xlink="http://www.w3.org/1999/xlink">
    <!-- Generator: sketchtool 52.5 (67469) - http://www.bohemiancoding.com/sketch -->
    <title>0B2F36EA-8DF6-4463-B08D-5CA566209837</title>
    <desc>Created with sketchtool.</desc>
    <g id="---Desktop" stroke="none" stroke-width="1" fill="none" fill-rule="evenodd">
        <g id="Landing-page2" transform="translate(-1395.000000, -496.000000)" fill="#00BBEC" fill-rule="nonzero">
            <g id="socialn-icons" transform="translate(1395.000000, 373.000000)">
                <g id="reddit" transform="translate(0.000000, 123.000000)">
                    <path d="M13,0 C16.5902344,0 19.8402344,1.45234375 22.1914062,3.80859375 C24.5476562,6.16484375 26,9.40976563 26,13 C26,16.5902344 24.5476562,19.8402344 22.1914062,22.1914062 C19.8351563,24.5476562 16.5902344,26 13,26 C9.40976563,26 6.15976563,24.5476562 3.80859375,22.1914062 C1.45234375,19.8402344 0,16.5902344 0,13 C0,9.40976563 1.45234375,6.15976563 3.80859375,3.80859375 C6.15976562,1.45234375 9.40976563,0 13,0 Z M21.4703125,4.5296875 C19.3070313,2.35625 16.3109375,1.015625 13,1.015625 C9.6890625,1.015625 6.69296875,2.35625 4.5296875,4.5296875 C2.35625,6.69296875 1.015625,9.6890625 1.015625,13 C1.015625,16.3109375 2.35625,19.3070313 4.5296875,21.4703125 C6.69296875,23.64375 9.6890625,24.984375 13,24.984375 C16.3109375,24.984375 19.3070313,23.64375 21.4703125,21.4703125 C23.64375,19.3070313 24.984375,16.3109375 24.984375,13 C24.984375,9.6890625 23.64375,6.69296875 21.4703125,4.5296875 Z" id="Shape"></path>
                    <path d="M20.0078125,12.9136719 C20.0078125,11.9132812 19.1953125,11.1007812 18.1949219,11.1007812 C17.79375,11.1007812 17.4179688,11.2328125 17.1082031,11.4664062 C16.0976563,10.765625 14.7722656,10.3441406 13.3605469,10.2375 L14.1222656,8.45507812 L16.3363281,8.97304687 C16.4074219,9.65859375 16.98125,10.1917969 17.6820313,10.1917969 C18.4335938,10.1917969 19.0429688,9.58242187 19.0429688,8.83085937 C19.0429688,8.07929687 18.4335938,7.46992187 17.6820313,7.46992187 C17.2046875,7.46992187 16.7882813,7.71367187 16.5445313,8.084375 L13.9597656,7.48007812 C13.7414063,7.42929687 13.528125,7.54101562 13.4367188,7.74414062 L12.3855469,10.2070312 C10.8621094,10.2578125 9.41484375,10.6894531 8.31796875,11.4359375 C8.01835938,11.2125 7.64765625,11.090625 7.25664063,11.090625 C6.25625,11.090625 5.44375,11.903125 5.44375,12.9035156 C5.44375,13.5636719 5.80429688,14.1628906 6.3578125,14.4726562 C6.35273438,14.5539062 6.34765625,14.6351562 6.34765625,14.7164062 C6.34765625,17.2148437 9.19140625,19.2460937 12.6902344,19.2460937 C16.1890625,19.2460937 19.0328125,17.2148437 19.0328125,14.7164062 C19.0328125,14.6453125 19.0277344,14.5742187 19.0277344,14.5082031 C19.621875,14.2136719 20.0078125,13.5992187 20.0078125,12.9136719 Z M17.6769531,8.37890625 C17.9257812,8.37890625 18.1289062,8.58203125 18.1289062,8.83085937 C18.1289062,9.0796875 17.9257812,9.2828125 17.6769531,9.2828125 C17.428125,9.2828125 17.225,9.0796875 17.225,8.83085937 C17.225,8.58203125 17.428125,8.37890625 17.6769531,8.37890625 Z M9.52148438,14.2695312 C9.52148438,13.771875 9.92773438,13.365625 10.4253906,13.365625 C10.9230469,13.365625 11.3292969,13.771875 11.3292969,14.2695312 C11.3292969,14.7722656 10.9230469,15.1734375 10.4253906,15.1734375 C9.9328125,15.1785156 9.52148438,14.7722656 9.52148438,14.2695312 Z M14.7875,17.2757812 C14.1628906,17.7277344 13.4265625,17.95625 12.6953125,17.95625 C11.9640625,17.95625 11.2277344,17.7277344 10.603125,17.2757812 C10.4,17.1285156 10.3542969,16.8441406 10.5015625,16.6410156 C10.6488281,16.4378906 10.9332031,16.3921875 11.1363281,16.5394531 C12.0707031,17.2148438 13.325,17.2148438 14.259375,16.5394531 C14.4625,16.3921875 14.7417969,16.4378906 14.8941406,16.6410156 C15.0363281,16.8492187 14.990625,17.1285156 14.7875,17.2757812 Z M14.9601563,15.1785156 C14.4574219,15.1785156 14.05625,14.7722656 14.05625,14.2746094 C14.05625,13.7769531 14.4625,13.3707031 14.9601563,13.3707031 C15.4628906,13.3707031 15.8640625,13.7769531 15.8640625,14.2746094 C15.8691406,14.7722656 15.4628906,15.1785156 14.9601563,15.1785156 Z" id="Shape"></path>
                </g>
            </g>
        </g>
    </g>
</svg>