<?xml version="1.0" encoding="UTF-8"?>
<svg width="26px" height="189px" viewBox="0 0 26 189" version="1.1" xmlns="http://www.w3.org/2000/svg" xmlns:xlink="http://www.w3.org/1999/xlink">
    <!-- Generator: sketchtool 52.5 (67469) - http://www.bohemiancoding.com/sketch -->
    <title>D28082F3-9593-4840-B754-6928CB0A63B9</title>
    <desc>Created with sketchtool.</desc>
    <g id="---Desktop" stroke="none" stroke-width="1" fill="none" fill-rule="evenodd">
        <g id="Landing-page2" transform="translate(-1395.000000, -373.000000)" fill="#00BBEC">
            <g id="socialn-icons" transform="translate(1395.000000, 373.000000)">
                <g id="fb" transform="translate(0.000000, 41.000000)">
                    <path d="M13.0101563,0.040625 C16.5953125,0.040625 19.8402344,1.49296875 22.1863281,3.84414062 C24.5375,6.1953125 25.9898438,9.43515625 25.9898438,13.0203125 C25.9898438,16.6054687 24.5375,19.8453125 22.1863281,22.1964844 C19.8351563,24.5476562 16.5953125,26 13.0101563,26 C9.425,26 6.18515625,24.5476562 3.83398438,22.1964844 C1.47773438,19.8503906 0.03046875,16.6054687 0.03046875,13.0203125 C0.03046875,9.43515625 1.4828125,6.1953125 3.83398438,3.84414062 C6.18007813,1.49296875 9.41992188,0.040625 13.0101563,0.040625 Z M21.4753906,4.56015625 C19.3070313,2.396875 16.3160156,1.05117187 13.0101563,1.05117187 C9.70429688,1.05117187 6.71328125,2.396875 4.55,4.56015625 C2.38671875,6.7234375 1.04101563,9.71445312 1.04101563,13.0203125 C1.04101563,16.3261719 2.38671875,19.3171875 4.55,21.4855469 C6.71328125,23.6488281 9.70429688,24.984375 13.0101563,24.984375 C16.3160156,24.984375 19.3070313,23.6488281 21.4753906,21.4855469 C23.6386719,19.3171875 24.9742187,16.3261719 24.9742187,13.0203125 C24.9742188,9.71445312 23.6386719,6.7234375 21.4753906,4.56015625 Z" id="Shape" fill-rule="nonzero"></path>
                    <path d="M14.0003906,10.3695312 L14.0003906,9.30820312 C14.0003906,8.80039062 14.340625,8.6734375 14.584375,8.6734375 C14.8230469,8.6734375 16.0722656,8.6734375 16.0722656,8.6734375 L16.0722656,6.40351562 L14.0257812,6.40351562 C11.7457031,6.40351562 11.2378906,8.084375 11.2378906,9.17617187 L11.2378906,10.3695312 L9.91757812,10.3695312 L9.91757812,11.9742187 L9.91757812,13.0253906 L11.253125,13.0253906 C11.253125,16.0367188 11.253125,19.6523438 11.253125,19.6523438 L13.9039063,19.6523438 C13.9039063,19.6523438 13.9039063,15.9859375 13.9039063,13.0253906 L15.8640625,13.0253906 L15.9503906,11.984375 L16.1078125,10.3746094 L14.0003906,10.3746094 L14.0003906,10.3695312 Z" id="Path"></path>
                </g>
                <g id="github-social-logo" transform="translate(0.000000, 163.000000)">
                    <path d="M13.0101563,0.040625 C16.5953125,0.040625 19.8402344,1.49296875 22.1863281,3.84414062 C24.5375,6.1953125 25.9898438,9.43515625 25.9898438,13.0203125 C25.9898438,16.6054687 24.5375,19.8453125 22.1863281,22.1964844 C19.8351563,24.5476562 16.5953125,26 13.0101563,26 C9.425,26 6.18515625,24.5476562 3.83398438,22.1964844 C1.47773438,19.8503906 0.03046875,16.6054687 0.03046875,13.0203125 C0.03046875,9.43515625 1.4828125,6.1953125 3.83398438,3.84414062 C6.18007813,1.49296875 9.41992188,0.040625 13.0101563,0.040625 Z M21.4753906,4.56015625 C19.3070313,2.396875 16.3160156,1.05117187 13.0101563,1.05117187 C9.70429688,1.05117187 6.71328125,2.396875 4.55,4.56015625 C2.38671875,6.7234375 1.04101563,9.71445312 1.04101563,13.0203125 C1.04101563,16.3261719 2.38671875,19.3171875 4.55,21.4855469 C6.71328125,23.6488281 9.70429688,24.984375 13.0101563,24.984375 C16.3160156,24.984375 19.3070313,23.6488281 21.4753906,21.4855469 C23.6386719,19.3171875 24.9742187,16.3261719 24.9742187,13.0203125 C24.9742188,9.71445312 23.6386719,6.7234375 21.4753906,4.56015625 Z" id="Shape" fill-rule="nonzero"></path>
                    <g id="Group" transform="translate(0.050781, 0.000000)">
                        <path d="M10.075,11.5628906 C9.89726563,11.5628906 9.75507812,11.6441406 9.63828125,11.8066406 C9.51640625,11.984375 9.45039063,12.2027344 9.45039063,12.4566406 C9.45039063,12.7105469 9.51132813,12.9289063 9.63828125,13.1066406 C9.75507813,13.2742188 9.89726563,13.3503906 10.075,13.3503906 C10.2527344,13.3503906 10.4050781,13.2691406 10.5269531,13.1015625 C10.6640625,12.9238281 10.725,12.7105469 10.725,12.4566406 C10.725,12.2027344 10.6589844,11.9894531 10.5269531,11.8117188 C10.4,11.6441406 10.2527344,11.5628906 10.075,11.5628906 Z" id="Path"></path>
                        <path d="M17.2960938,15.2039062 C17.9460938,14.9144531 18.4640625,14.5386719 18.8296875,14.096875 C19.1953125,13.65 19.4492188,13.1472656 19.5863281,12.5988281 C19.7234375,12.0402344 19.7945312,11.4359375 19.7945312,10.80625 C19.7945312,10.1257812 19.6878906,9.50625 19.4746094,8.97304687 C19.2613281,8.43984375 18.9566406,7.97265625 18.5707031,7.58671875 L18.5199219,7.5359375 L18.5402344,7.46484375 C18.6570312,7.01796875 18.6925781,6.55078125 18.6417969,6.06328125 C18.5960937,5.61132812 18.5046875,5.19492187 18.3675781,4.82929687 C17.6871094,4.875 17.1082031,5.02226562 16.6460937,5.2609375 C16.1535156,5.51484375 15.7980469,5.73320312 15.5847656,5.9109375 L15.5339844,5.9515625 L15.4730469,5.93632812 C14.6859375,5.73828125 13.853125,5.63671875 13.0050781,5.63671875 L12.7917969,5.63671875 C11.8828125,5.63671875 10.9941406,5.75859375 10.1460938,5.9921875 L10.0800781,6.0125 L10.0292969,5.96679687 C9.83632813,5.79414062 9.4859375,5.565625 8.98320313,5.29140625 C8.5109375,5.03242187 7.91679688,4.88007812 7.22109375,4.82929687 C7.08398438,5.21523437 6.99257813,5.65703125 6.946875,6.13945312 C6.89609375,6.65234375 6.95195313,7.14492187 7.10429688,7.60703125 L7.1296875,7.678125 L7.07890625,7.73398437 C6.72851563,8.11992187 6.45429688,8.57695312 6.26132813,9.0796875 C6.06835938,9.58242187 5.96679688,10.1664062 5.96679688,10.8113281 C5.96679688,11.4410156 6.04296875,12.0453125 6.19023438,12.6140625 C6.33242188,13.1726562 6.60664063,13.6753906 7.00273438,14.1121094 C7.39882813,14.5488281 7.94726563,14.909375 8.62773438,15.19375 C9.31328125,15.478125 10.2121094,15.6609375 11.2988281,15.7421875 L11.7660156,15.7777344 L11.3445312,15.9859375 C11.2632813,16.0265625 11.1515625,16.0773438 11.0144531,16.128125 C10.8925781,16.1738281 10.7554688,16.2449219 10.6132812,16.33125 C10.4761719,16.4125 10.3441406,16.5292969 10.2222656,16.6664063 C10.1054688,16.7984375 10.0191406,16.9914063 9.96328125,17.2300781 L9.953125,17.2808594 L9.9125,17.3113281 C9.63828125,17.5042969 9.35390625,17.6210938 9.07460938,17.6617188 C8.80039063,17.7023438 8.54140625,17.7023438 8.3078125,17.6617188 C8.07421875,17.6210938 7.8609375,17.5449219 7.66796875,17.4382813 C7.48007813,17.3367188 7.32265625,17.2300781 7.19570313,17.1234375 C6.9265625,16.8949219 6.66757813,16.615625 6.42382813,16.290625 C6.20039063,15.9910156 5.971875,15.7929688 5.75351563,15.7015625 L5.728125,15.6914063 L5.71289063,15.6761719 C5.70273438,15.6710938 5.64179688,15.640625 5.41328125,15.6203125 C5.24570313,15.6050781 5.11875,15.6507813 5.02734375,15.7574219 L5.02226563,15.7625 C5.02734375,15.7675781 5.02734375,15.7726563 5.0375,15.7777344 C5.10351563,15.84375 5.2,15.925 5.32695313,16.0214844 C5.45898438,16.1230469 5.61640625,16.2652344 5.7890625,16.4378906 C5.96679688,16.615625 6.134375,16.8441406 6.2765625,17.1132813 L6.28164062,17.1183594 C6.53554687,17.6414063 6.79960938,18.0273438 7.06367187,18.2660156 C7.32773437,18.4996094 7.71875,18.6671875 8.23671875,18.7636719 C8.54648437,18.8195313 8.82578125,18.8398438 9.07460937,18.8246094 C9.3234375,18.8042969 9.52148438,18.76875 9.67382812,18.7128906 L9.84648437,18.646875 L9.84648437,18.8347656 C9.84648437,19.3527344 9.8515625,19.8351563 9.86171875,20.2617188 C9.87695313,20.8609375 9.84140625,21.0285156 9.80585938,21.1097656 L9.80078125,21.1199219 C9.71445313,21.2976563 9.58242188,21.4550781 9.41992188,21.5820313 C9.26757813,21.7039063 9.13554688,21.8003906 9.02890625,21.8613281 C8.978125,21.8917969 8.98320313,21.9019531 8.98828125,21.9222656 C8.98828125,21.9222656 9.01875,21.9882813 9.29804688,22.0136719 C9.40976563,22.0136719 9.546875,21.9933594 9.71445313,21.9578125 C9.88203125,21.9222656 10.0394531,21.85625 10.1867188,21.7648438 C10.3339844,21.6734375 10.4558594,21.5566406 10.5574219,21.4195313 C10.6488281,21.2925781 10.6996094,21.1199219 10.6996094,20.9066406 L10.6996094,18.4386719 C10.6996094,18.11875 10.7707031,17.8902344 10.9179688,17.7429688 C11.0550781,17.6058594 11.2023438,17.5144531 11.3648438,17.46875 L11.5273438,17.4230469 L11.5273438,20.8457031 C11.5273438,21.1351563 11.5019531,21.3890625 11.4460938,21.5972656 C11.3953125,21.8105469 11.3445313,21.9578125 11.2988281,22.0441406 L11.2886719,22.0644531 C11.2277344,22.140625 11.171875,22.2269531 11.1109375,22.3132813 C11.0652344,22.3792969 11.05,22.4199219 11.0449219,22.4453125 C11.0753906,22.4453125 11.1667969,22.4402344 11.4207031,22.3742188 L11.4257813,22.3742188 C11.8320313,22.2828125 12.1011719,22.0796875 12.2585938,21.7496094 C12.4210938,21.409375 12.5023438,21.0386719 12.5023438,20.6578125 L12.5023438,17.3367188 L13.4214844,17.3367188 L13.4214844,20.6578125 C13.4214844,21.0386719 13.5078125,21.4042969 13.6804688,21.7445313 C13.8429688,22.0746094 14.1121094,22.2777344 14.4980469,22.3691406 C14.7417969,22.4351563 14.8433594,22.4453125 14.8890625,22.4453125 C14.8789063,22.4097656 14.8585938,22.3640625 14.8230469,22.303125 C14.7773438,22.2167969 14.7214844,22.1355469 14.665625,22.059375 C14.5082031,21.85625 14.4269531,21.4550781 14.4269531,20.8355469 L14.4269531,17.4128906 L14.5894531,17.4585937 C14.746875,17.5042969 14.9042969,17.5957031 15.0464844,17.7277344 C15.2039063,17.875 15.2851563,18.1085938 15.2851563,18.4234375 L15.2851563,20.8914062 C15.2851563,21.1046875 15.3308594,21.2773438 15.4273438,21.4042969 C15.5289063,21.5414063 15.6507813,21.6582031 15.7980469,21.7496094 C15.9453125,21.8410156 16.1027344,21.9070313 16.2703125,21.9425781 C16.4378906,21.978125 16.5800781,21.9984375 16.6867188,21.9984375 C16.9660156,21.9730469 16.9964844,21.9121094 16.9964844,21.9070313 C17.0066406,21.8867188 17.0117188,21.8765625 16.9558594,21.8460938 C16.8492188,21.7800781 16.7222656,21.6886719 16.5648438,21.5667969 C16.4023438,21.4347656 16.2703125,21.2773438 16.1839844,21.1046875 C16.1484375,21.0335938 16.1128906,20.8863281 16.1230469,20.3683594 C16.1332031,19.9976563 16.1382813,19.5914063 16.1382813,19.1546875 C16.1382813,18.7179688 16.1230469,18.2863281 16.0925781,17.8699219 C16.0621094,17.46875 16.0011719,17.1589844 15.9097656,16.9558594 C15.7421875,16.6410156 15.5441406,16.4277344 15.3207031,16.3210938 C15.071875,16.2042969 14.8636719,16.1027344 14.7011719,16.0214844 L14.2847656,15.8132813 L14.746875,15.7777344 C15.7878906,15.6863281 16.6359375,15.4933594 17.2960938,15.2039062 Z M13.56875,15.6609375 L12.2433594,15.6609375 C11.8015625,15.6609375 11.4054688,15.640625 11.0703125,15.6 C10.7402344,15.559375 10.4609375,15.51875 10.2324219,15.478125 L10.2273438,15.478125 C9.96328125,15.4171875 9.71953125,15.35625 9.50117188,15.2953125 L9.49101563,15.2902344 C8.17578125,14.828125 7.50546875,13.9496094 7.50546875,12.6699219 C7.50546875,12.0097656 7.61210938,11.4765625 7.8203125,11.0855469 C8.03359375,10.6945312 8.38398438,10.3644531 8.86640625,10.115625 C9.1,9.98867187 9.384375,9.9125 9.69921875,9.8921875 C10.0039062,9.871875 10.3289063,9.86679687 10.6742188,9.87695312 C11.0144531,9.88710937 11.3851562,9.90742187 11.7660156,9.93789062 C12.1417969,9.96835937 12.5226563,9.98359375 12.8984375,9.98359375 C13.2742187,9.98359375 13.6550781,9.96835937 14.0308594,9.93789062 C14.4117188,9.90742187 14.7773438,9.88710937 15.1226563,9.87695312 C15.4679688,9.86679687 15.7929688,9.871875 16.0976562,9.8921875 C16.4175781,9.9125 16.696875,9.98867187 16.9355469,10.1207031 C17.4179688,10.3695312 17.7734375,10.6996094 17.996875,11.090625 C18.2203125,11.4816406 18.3320312,12.0148437 18.3320312,12.675 C18.3320312,13.9546875 17.6667969,14.8382812 16.3464844,15.2953125 L16.3414062,15.2953125 C16.1382812,15.35625 15.8945312,15.4171875 15.6101563,15.478125 L15.6050781,15.478125 C15.3613281,15.51875 15.0617187,15.559375 14.7265625,15.6 C14.38125,15.6355469 13.9902344,15.6609375 13.56875,15.6609375 Z" id="Shape" fill-rule="nonzero"></path>
                        <path d="M15.9757813,11.5628906 C15.7980469,11.5628906 15.6558594,11.6441406 15.5390625,11.8066406 C15.4121094,11.984375 15.3511719,12.2027344 15.3511719,12.4566406 C15.3511719,12.7105469 15.4121094,12.9289063 15.5390625,13.1066406 C15.6558594,13.2742188 15.7980469,13.3503906 15.9757813,13.3503906 C16.1535156,13.3503906 16.3058594,13.2691406 16.4277344,13.1015625 C16.5648437,12.9238281 16.6257812,12.7105469 16.6257812,12.4566406 C16.6257812,12.2027344 16.5597656,11.9894531 16.4277344,11.8117188 C16.3058594,11.6441406 16.1535156,11.5628906 15.9757813,11.5628906 Z" id="Path"></path>
                        <path d="M22.0898437,3.84414063 C20.921875,2.67617188 19.5355469,1.74179688 17.9765625,1.06132812 C16.4175781,0.3859375 14.7214844,0.040625 12.9339844,0.040625 C11.1464844,0.040625 9.45039063,0.3859375 7.89140625,1.06132812 C6.32734375,1.73671875 4.94609375,2.67617188 3.778125,3.84414063 C2.61015625,5.01210938 1.68085937,6.3984375 1.01054687,7.95742187 C0.3453125,9.51640625 0.005078125,11.2125 0.005078125,13 C0.005078125,14.7875 0.3453125,16.4835937 1.01054687,18.0425781 C1.67578125,19.6015625 2.61015625,20.9878906 3.778125,22.1558594 C4.94609375,23.3238281 6.33242187,24.2582031 7.89140625,24.9386719 C9.45039063,25.6140625 11.1464844,25.959375 12.9339844,25.959375 C14.7214844,25.959375 16.4175781,25.6140625 17.9765625,24.9386719 C19.540625,24.2632812 20.921875,23.3238281 22.0898437,22.1558594 C23.2578125,20.9878906 24.1921875,19.6015625 24.8726562,18.0425781 C25.5480469,16.4835937 25.8933594,14.7875 25.8933594,13 C25.8933594,11.2125 25.5480469,9.51640625 24.8726562,7.95742187 C24.1972656,6.39335938 23.2578125,5.01210938 22.0898437,3.84414063 Z M23.9738281,17.6667969 C23.3542969,19.1140625 22.4910156,20.39375 21.409375,21.4753906 C20.3277344,22.5570313 19.0480469,23.4203125 17.6007813,24.0398438 C16.1535156,24.659375 14.584375,24.9792969 12.9339844,24.9792969 C11.2835937,24.9792969 9.71445312,24.6644531 8.2671875,24.0398438 C6.81992187,23.4203125 5.54023437,22.5570313 4.45859375,21.4753906 C3.37695312,20.39375 2.51367187,19.1140625 1.89414062,17.6667969 C1.27460937,16.2195313 0.9546875,14.6503906 0.9546875,13 C0.9546875,11.3496094 1.26953125,9.78046875 1.89414062,8.33320313 C2.51367187,6.8859375 3.37695312,5.60625 4.45859375,4.52460938 C5.54023437,3.44296875 6.81992187,2.5796875 8.2671875,1.96015625 C9.71445312,1.340625 11.2835937,1.02070312 12.9339844,1.02070312 C14.584375,1.02070312 16.1535156,1.33554687 17.6007813,1.96015625 C19.0480469,2.5796875 20.3277344,3.44296875 21.409375,4.52460938 C22.4910156,5.60625 23.3542969,6.8859375 23.9738281,8.33320313 C24.5933594,9.78046875 24.9132813,11.3496094 24.9132813,13 C24.9132813,14.6503906 24.5933594,16.2195313 23.9738281,17.6667969 Z" id="Shape" fill-rule="nonzero"></path>
                    </g>
                </g>
                <g id="in" transform="translate(0.000000, 82.000000)">
                    <path d="M13,0 C16.5902344,0 19.8402344,1.45234375 22.1914062,3.80859375 C24.5476562,6.16484375 26,9.40976563 26,13 C26,16.5902344 24.5476562,19.8402344 22.1914062,22.1914062 C19.8351563,24.5476562 16.5902344,26 13,26 C9.40976563,26 6.15976563,24.5476562 3.80859375,22.1914062 C1.45234375,19.8402344 0,16.5902344 0,13 C0,9.40976563 1.45234375,6.15976563 3.80859375,3.80859375 C6.15976562,1.45234375 9.40976563,0 13,0 Z M21.4703125,4.5296875 C19.3070313,2.35625 16.3109375,1.015625 13,1.015625 C9.6890625,1.015625 6.69296875,2.35625 4.5296875,4.5296875 C2.35625,6.69296875 1.015625,9.6890625 1.015625,13 C1.015625,16.3109375 2.35625,19.3070313 4.5296875,21.4703125 C6.69296875,23.64375 9.6890625,24.984375 13,24.984375 C16.3109375,24.984375 19.3070313,23.64375 21.4703125,21.4703125 C23.64375,19.3070313 24.984375,16.3109375 24.984375,13 C24.984375,9.6890625 23.64375,6.69296875 21.4703125,4.5296875 Z" id="Shape" fill-rule="nonzero"></path>
                    <path d="M7.13476562,13.121875 L7.13476562,18.8652344 L9.871875,18.8652344 L9.871875,12.6546875 L9.871875,11.0398437 L7.13476562,11.0398437 L7.13476562,13.121875 Z M18.8042969,13.446875 C18.6265625,11.9640625 17.9460938,11.0449219 15.9453125,11.0449219 C14.7722656,11.0449219 13.9800781,11.4765625 13.65,12.1011719 L13.609375,12.1011719 L13.609375,11.0449219 L11.4257812,11.0449219 L11.4257812,12.5480469 L11.4257812,18.8703125 L13.7109375,18.8703125 L13.7109375,14.990625 C13.7109375,13.9699219 13.9140625,12.9847656 15.1632813,12.9847656 C16.4226563,12.9847656 16.5140625,14.1527344 16.5140625,15.0667969 L16.5140625,18.8753906 L18.8601563,18.8753906 L18.8601563,14.5792969 C18.8652344,14.1679688 18.8449219,13.7921875 18.8042969,13.446875 Z M8.50078125,7.13476562 C7.74414062,7.13476562 7.13476562,7.74414062 7.13476562,8.50078125 C7.13476562,9.25742188 7.74921875,9.86679688 8.50078125,9.86679688 C9.25742188,9.86679688 9.86679688,9.25742188 9.86679688,8.50078125 C9.86679688,7.74414062 9.25742188,7.13476562 8.50078125,7.13476562 Z" id="Shape"></path>
                </g>
                <g id="reddit" transform="translate(0.000000, 123.000000)">
                    <path d="M13,0 C16.5902344,0 19.8402344,1.45234375 22.1914062,3.80859375 C24.5476562,6.16484375 26,9.40976563 26,13 C26,16.5902344 24.5476562,19.8402344 22.1914062,22.1914062 C19.8351563,24.5476562 16.5902344,26 13,26 C9.40976563,26 6.15976563,24.5476562 3.80859375,22.1914062 C1.45234375,19.8402344 0,16.5902344 0,13 C0,9.40976563 1.45234375,6.15976563 3.80859375,3.80859375 C6.15976562,1.45234375 9.40976563,0 13,0 Z M21.4703125,4.5296875 C19.3070313,2.35625 16.3109375,1.015625 13,1.015625 C9.6890625,1.015625 6.69296875,2.35625 4.5296875,4.5296875 C2.35625,6.69296875 1.015625,9.6890625 1.015625,13 C1.015625,16.3109375 2.35625,19.3070313 4.5296875,21.4703125 C6.69296875,23.64375 9.6890625,24.984375 13,24.984375 C16.3109375,24.984375 19.3070313,23.64375 21.4703125,21.4703125 C23.64375,19.3070313 24.984375,16.3109375 24.984375,13 C24.984375,9.6890625 23.64375,6.69296875 21.4703125,4.5296875 Z" id="Shape" fill-rule="nonzero"></path>
                    <path d="M20.0078125,12.9136719 C20.0078125,11.9132812 19.1953125,11.1007812 18.1949219,11.1007812 C17.79375,11.1007812 17.4179688,11.2328125 17.1082031,11.4664062 C16.0976563,10.765625 14.7722656,10.3441406 13.3605469,10.2375 L14.1222656,8.45507812 L16.3363281,8.97304687 C16.4074219,9.65859375 16.98125,10.1917969 17.6820313,10.1917969 C18.4335938,10.1917969 19.0429688,9.58242187 19.0429688,8.83085937 C19.0429688,8.07929687 18.4335938,7.46992187 17.6820313,7.46992187 C17.2046875,7.46992187 16.7882813,7.71367187 16.5445313,8.084375 L13.9597656,7.48007812 C13.7414063,7.42929687 13.528125,7.54101562 13.4367188,7.74414062 L12.3855469,10.2070312 C10.8621094,10.2578125 9.41484375,10.6894531 8.31796875,11.4359375 C8.01835938,11.2125 7.64765625,11.090625 7.25664063,11.090625 C6.25625,11.090625 5.44375,11.903125 5.44375,12.9035156 C5.44375,13.5636719 5.80429688,14.1628906 6.3578125,14.4726562 C6.35273438,14.5539062 6.34765625,14.6351562 6.34765625,14.7164062 C6.34765625,17.2148437 9.19140625,19.2460937 12.6902344,19.2460937 C16.1890625,19.2460937 19.0328125,17.2148437 19.0328125,14.7164062 C19.0328125,14.6453125 19.0277344,14.5742187 19.0277344,14.5082031 C19.621875,14.2136719 20.0078125,13.5992187 20.0078125,12.9136719 Z M17.6769531,8.37890625 C17.9257812,8.37890625 18.1289062,8.58203125 18.1289062,8.83085937 C18.1289062,9.0796875 17.9257812,9.2828125 17.6769531,9.2828125 C17.428125,9.2828125 17.225,9.0796875 17.225,8.83085937 C17.225,8.58203125 17.428125,8.37890625 17.6769531,8.37890625 Z M9.52148438,14.2695312 C9.52148438,13.771875 9.92773438,13.365625 10.4253906,13.365625 C10.9230469,13.365625 11.3292969,13.771875 11.3292969,14.2695312 C11.3292969,14.7722656 10.9230469,15.1734375 10.4253906,15.1734375 C9.9328125,15.1785156 9.52148438,14.7722656 9.52148438,14.2695312 Z M14.7875,17.2757812 C14.1628906,17.7277344 13.4265625,17.95625 12.6953125,17.95625 C11.9640625,17.95625 11.2277344,17.7277344 10.603125,17.2757812 C10.4,17.1285156 10.3542969,16.8441406 10.5015625,16.6410156 C10.6488281,16.4378906 10.9332031,16.3921875 11.1363281,16.5394531 C12.0707031,17.2148438 13.325,17.2148438 14.259375,16.5394531 C14.4625,16.3921875 14.7417969,16.4378906 14.8941406,16.6410156 C15.0363281,16.8492187 14.990625,17.1285156 14.7875,17.2757812 Z M14.9601563,15.1785156 C14.4574219,15.1785156 14.05625,14.7722656 14.05625,14.2746094 C14.05625,13.7769531 14.4625,13.3707031 14.9601563,13.3707031 C15.4628906,13.3707031 15.8640625,13.7769531 15.8640625,14.2746094 C15.8691406,14.7722656 15.4628906,15.1785156 14.9601563,15.1785156 Z" id="Shape" fill-rule="nonzero"></path>
                </g>
                <g id="twitter">
                    <path d="M13.0202729,0 C16.6035088,0 19.8421053,1.45964912 22.1937622,3.80116959 C24.5403509,6.14775828 25.9949318,9.39649123 25.9949318,12.9797271 C25.9949318,16.5578947 24.5454191,19.8015595 22.1937622,22.1532164 C19.8471735,24.4947368 16.6035088,25.954386 13.0202729,25.954386 C9.43703704,25.954386 6.19844055,24.4947368 3.84678363,22.1532164 C1.50019493,19.8066277 0.0456140351,16.5578947 0.0456140351,12.9797271 C0.0506822612,9.39649123 1.50019493,6.14775828 3.85185185,3.80116959 C6.19844055,1.45964912 9.43703704,0 13.0202729,0 Z M21.4740741,4.51578947 C19.3099415,2.35165692 16.3247563,1.01871345 13.0202729,1.01871345 C9.71578947,1.01871345 6.73060429,2.35672515 4.56647173,4.51578947 C2.39727096,6.67992203 1.06432749,9.67524366 1.06432749,12.9797271 C1.06432749,16.2740741 2.40233918,19.2693957 4.57153996,21.4335283 C6.73567251,23.5976608 9.7208577,24.9407407 13.0253411,24.9407407 C16.3298246,24.9407407 19.3150097,23.5976608 21.4791423,21.4335283 C23.6483431,19.2693957 24.9863548,16.2740741 24.9863548,12.9797271 C24.9812865,9.67524366 23.6432749,6.67992203 21.4740741,4.51578947 Z" id="Shape" fill-rule="nonzero"></path>
                    <path d="M19.6444444,8.93528265 C19.162963,9.14307992 18.6409357,9.28499025 18.088499,9.36101365 C18.6561404,9.0214425 19.0869396,8.50448343 19.2896686,7.87602339 C18.7676413,8.18518519 18.1746589,8.40818713 17.5563353,8.52982456 C17.0647173,8.00779727 16.3551657,7.6834308 15.5645224,7.6834308 C14.0693957,7.6834308 12.8479532,8.88460039 12.8479532,10.354386 C12.8479532,10.5723197 12.8834308,10.7699805 12.9290448,10.9676413 C10.668616,10.8612086 8.66159844,9.79688109 7.32865497,8.17504873 C7.1005848,8.5754386 6.95360624,9.03157895 6.95360624,9.51812865 C6.95360624,10.4506823 7.44015595,11.2717349 8.15984405,11.7430799 C7.71384016,11.7380117 7.29824561,11.611306 6.93333333,11.4136452 C6.93333333,11.4288499 6.93333333,11.4339181 6.93333333,11.4491228 C6.93333333,11.7937622 6.99922027,12.1079922 7.1208577,12.4120858 C7.4502924,13.2534113 8.20545809,13.8869396 9.11773879,14.0643275 C8.87953216,14.1302144 8.65146199,14.165692 8.39805068,14.165692 C8.22573099,14.165692 8.05341131,14.1454191 7.88615984,14.1099415 C8.24093567,15.174269 9.23430799,15.9497076 10.4202729,15.9750487 C9.4877193,16.6947368 8.32202729,17.1153996 7.04990253,17.1153996 C6.82690058,17.1153996 6.61910331,17.1001949 6.39610136,17.079922 C7.60233918,17.8350877 9.03157895,18.2810916 10.5621832,18.2810916 C14.8093567,18.2810916 17.4296296,15.3415205 18.1087719,12.2904483 C18.2304094,11.7430799 18.2861598,11.205848 18.2861598,10.6736842 C18.2861598,10.557115 18.2861598,10.4354776 18.2861598,10.3290448 C18.8183236,9.93879142 19.2846004,9.46744639 19.6444444,8.93528265 Z" id="Path"></path>
                </g>
            </g>
        </g>
    </g>
</svg>