<?xml version="1.0" encoding="UTF-8"?>
<svg width="26px" height="26px" viewBox="0 0 26 26" version="1.1" xmlns="http://www.w3.org/2000/svg" xmlns:xlink="http://www.w3.org/1999/xlink">
    <!-- Generator: sketchtool 52.5 (67469) - http://www.bohemiancoding.com/sketch -->
    <title>FA8F3641-C1D0-4F79-9107-2FDD65A68357</title>
    <desc>Created with sketchtool.</desc>
    <g id="---Desktop" stroke="none" stroke-width="1" fill="none" fill-rule="evenodd">
        <g id="Landing-page2" transform="translate(-1395.000000, -373.000000)" fill="#00BBEC">
            <g id="socialn-icons" transform="translate(1395.000000, 373.000000)">
                <g id="twitter">
                    <path d="M13.0202729,0 C16.6035088,0 19.8421053,1.45964912 22.1937622,3.80116959 C24.5403509,6.14775828 25.9949318,9.39649123 25.9949318,12.9797271 C25.9949318,16.5578947 24.5454191,19.8015595 22.1937622,22.1532164 C19.8471735,24.4947368 16.6035088,25.954386 13.0202729,25.954386 C9.43703704,25.954386 6.19844055,24.4947368 3.84678363,22.1532164 C1.50019493,19.8066277 0.0456140351,16.5578947 0.0456140351,12.9797271 C0.0506822612,9.39649123 1.50019493,6.14775828 3.85185185,3.80116959 C6.19844055,1.45964912 9.43703704,0 13.0202729,0 Z M21.4740741,4.51578947 C19.3099415,2.35165692 16.3247563,1.01871345 13.0202729,1.01871345 C9.71578947,1.01871345 6.73060429,2.35672515 4.56647173,4.51578947 C2.39727096,6.67992203 1.06432749,9.67524366 1.06432749,12.9797271 C1.06432749,16.2740741 2.40233918,19.2693957 4.57153996,21.4335283 C6.73567251,23.5976608 9.7208577,24.9407407 13.0253411,24.9407407 C16.3298246,24.9407407 19.3150097,23.5976608 21.4791423,21.4335283 C23.6483431,19.2693957 24.9863548,16.2740741 24.9863548,12.9797271 C24.9812865,9.67524366 23.6432749,6.67992203 21.4740741,4.51578947 Z" id="Shape" fill-rule="nonzero"></path>
                    <path d="M19.6444444,8.93528265 C19.162963,9.14307992 18.6409357,9.28499025 18.088499,9.36101365 C18.6561404,9.0214425 19.0869396,8.50448343 19.2896686,7.87602339 C18.7676413,8.18518519 18.1746589,8.40818713 17.5563353,8.52982456 C17.0647173,8.00779727 16.3551657,7.6834308 15.5645224,7.6834308 C14.0693957,7.6834308 12.8479532,8.88460039 12.8479532,10.354386 C12.8479532,10.5723197 12.8834308,10.7699805 12.9290448,10.9676413 C10.668616,10.8612086 8.66159844,9.79688109 7.32865497,8.17504873 C7.1005848,8.5754386 6.95360624,9.03157895 6.95360624,9.51812865 C6.95360624,10.4506823 7.44015595,11.2717349 8.15984405,11.7430799 C7.71384016,11.7380117 7.29824561,11.611306 6.93333333,11.4136452 C6.93333333,11.4288499 6.93333333,11.4339181 6.93333333,11.4491228 C6.93333333,11.7937622 6.99922027,12.1079922 7.1208577,12.4120858 C7.4502924,13.2534113 8.20545809,13.8869396 9.11773879,14.0643275 C8.87953216,14.1302144 8.65146199,14.165692 8.39805068,14.165692 C8.22573099,14.165692 8.05341131,14.1454191 7.88615984,14.1099415 C8.24093567,15.174269 9.23430799,15.9497076 10.4202729,15.9750487 C9.4877193,16.6947368 8.32202729,17.1153996 7.04990253,17.1153996 C6.82690058,17.1153996 6.61910331,17.1001949 6.39610136,17.079922 C7.60233918,17.8350877 9.03157895,18.2810916 10.5621832,18.2810916 C14.8093567,18.2810916 17.4296296,15.3415205 18.1087719,12.2904483 C18.2304094,11.7430799 18.2861598,11.205848 18.2861598,10.6736842 C18.2861598,10.557115 18.2861598,10.4354776 18.2861598,10.3290448 C18.8183236,9.93879142 19.2846004,9.46744639 19.6444444,8.93528265 Z" id="Path"></path>
                </g>
            </g>
        </g>
    </g>
</svg>