<?xml version="1.0" encoding="UTF-8"?>
<svg width="165px" height="24px" viewBox="0 0 165 24" version="1.1" xmlns="http://www.w3.org/2000/svg" xmlns:xlink="http://www.w3.org/1999/xlink">
    <!-- Generator: sketchtool 52.5 (67469) - http://www.bohemiancoding.com/sketch -->
    <title>2D72762C-3AC1-41D4-A274-9AD5CAE3E675</title>
    <desc>Created with sketchtool.</desc>
    <g id="---Desktop" stroke="none" stroke-width="1" fill="none" fill-rule="evenodd">
        <g id="Landing-page2" transform="translate(-119.000000, -53.000000)" fill="#FFD166">
            <g id="logotype-horizontal-yellow" transform="translate(119.000000, 53.000000)">
                <g id="Group">
                    <path d="M18.3534112,11.9835349 C18.3534112,12.9774419 18.1171963,13.9198605 17.6964953,14.7556744 L6.51490654,14.7556744 C6.09518692,13.9198605 5.85700935,12.9774419 5.85700935,11.9835349 C5.85700935,11.0531163 6.06504673,10.1652558 6.43682243,9.37046512 L12.1057009,14.7403256 L17.7745794,9.37046512 C18.1464953,10.1652558 18.3534112,11.0531163 18.3534112,11.9835349 Z" id="Path"></path>
                    <path d="M15.911215,7.05404651 L12.1058411,10.6607442 L8.30046729,7.05404651 C8.96495327,6.54446512 9.73303738,6.16674419 10.5688318,5.95604651 L12.1058411,7.41195349 L13.6428505,5.95604651 C14.4776636,6.16660465 15.2465888,6.54432558 15.911215,7.05404651 Z" id="Path"></path>
                    <path d="M20.5606542,13.831814 C19.7107009,17.7027907 16.2490654,20.5992558 12.1058411,20.5992558 C7.32448598,20.5992558 3.44859813,16.7416744 3.44859813,11.9835349 C3.44859813,7.22511628 7.32434579,3.36753488 12.1058411,3.36753488 C16.2490654,3.36753488 19.7107009,6.26427907 20.5606542,10.1352558 L23.9593458,10.1352558 C23.0652336,4.42604651 18.09,0.0418604651 12.1058411,0.0418604651 C5.49098131,0.0418604651 0.107383178,5.39944186 0.107383178,11.9835349 C0.107383178,18.5683256 5.49098131,23.9252093 12.1058411,23.9252093 C18.09,23.9252093 23.0652336,19.5407442 23.9593458,13.831814 L20.5606542,13.831814 Z" id="Path"></path>
                </g>
                <g id="Group" transform="translate(31.261682, 4.744186)">
                    <path d="M0.00588785047,7.20083721 C0.00588785047,6.09544186 0.168785047,5.1032093 0.496261682,4.22539535 C0.821915888,3.3475814 1.27009346,2.60469767 1.84037383,1.99576744 C2.40883178,1.38781395 3.07528037,0.924139535 3.83943925,0.606418605 C4.60373832,0.288139535 5.4235514,0.129767442 6.2978972,0.129767442 C7.13186916,0.129767442 7.87906542,0.303069767 8.53794393,0.647860465 C9.19780374,0.993488372 9.74271028,1.39534884 10.1739252,1.85051163 L8.84018692,3.34395349 C8.47878505,2.99804651 8.10126168,2.72455814 7.70411215,2.52418605 C7.30878505,2.32465116 6.84658879,2.22334884 6.31948598,2.22334884 C5.7632243,2.22334884 5.24929907,2.33860465 4.77686916,2.56646512 C4.30443925,2.79404651 3.89957944,3.12 3.55808411,3.54153488 C3.21827103,3.96390698 2.95471963,4.47823256 2.76658879,5.08618605 C2.57929907,5.69525581 2.48607477,6.37911628 2.48607477,7.13972093 C2.48607477,8.68744186 2.82588785,9.90069767 3.50635514,10.7785116 C4.18584112,11.6563256 5.09691589,12.0946047 6.23579439,12.0946047 C6.84658879,12.0946047 7.38224299,11.9785116 7.84051402,11.7425581 C8.29892523,11.5073023 8.72242991,11.1767442 9.11116822,10.7486512 L10.4449065,12.2194884 C9.88850467,12.8563256 9.26074766,13.3437209 8.55869159,13.681814 C7.85747664,14.0208837 7.06864486,14.1895814 6.19443925,14.1895814 C5.33228972,14.1895814 4.52369159,14.0377674 3.7661215,13.7333023 C3.00953271,13.4296744 2.35345794,12.9807907 1.79803738,12.3851163 C1.2417757,11.7912558 0.805093458,11.0586977 0.485186916,10.1882791 C0.165,9.31702326 0.00588785047,8.32130233 0.00588785047,7.20083721 Z" id="Path"></path>
                    <path d="M12.4864486,3.75990698 L14.4657477,3.75990698 L14.6322897,5.56325581 L14.7161215,5.56325581 C15.0775234,4.89906977 15.5142056,4.39032558 16.0281308,4.03813953 C16.5420561,3.6867907 17.0709813,3.50972093 17.6121028,3.50972093 C18.0978505,3.50972093 18.4865888,3.57893023 18.7783178,3.71762791 L18.3612617,5.79181395 C18.1815421,5.73572093 18.0148598,5.69539535 17.8614953,5.66623256 C17.708972,5.63930233 17.5208411,5.62590698 17.2986449,5.62590698 C16.8957477,5.62590698 16.472243,5.78148837 16.0281308,6.09167442 C15.5838785,6.40269767 15.201729,6.94604651 14.8816822,7.72088372 L14.8816822,13.9413488 L12.4864486,13.9413488 L12.4864486,3.75990698 Z" id="Path"></path>
                    <path d="M20.6426636,16.150186 C20.7735981,16.1839535 20.903271,16.2008372 21.0276168,16.2008372 C21.5697196,16.2008372 22.0037383,16.0386977 22.3302336,15.7146977 C22.6558879,15.3895814 22.9024766,14.9709767 23.07,14.4594419 L23.2572897,13.8168837 L19.2356075,3.75990698 L21.6733178,3.76004651 L23.4447196,8.7572093 C23.597243,9.19925581 23.7478037,9.66669767 23.892757,10.1557674 C24.0395327,10.6473488 24.1881308,11.1347442 24.3406542,11.6189302 L24.4235047,11.6189302 C24.5495327,11.1488372 24.6776636,10.6691163 24.8094393,10.178093 C24.9420561,9.68651163 25.0700467,9.21223256 25.1952336,8.75706977 L26.7370093,3.75990698 L29.0495327,3.75990698 L25.3411682,14.3965116 C25.133271,14.9775349 24.9036449,15.4973023 24.6531308,15.9526047 C24.4037383,16.4088837 24.1148131,16.8004186 23.7892991,17.1244186 C23.4626636,17.4495349 23.0869626,17.6977674 22.6635981,17.872186 C22.2400935,18.0443721 21.7505607,18.1297674 21.1952804,18.1297674 C20.916729,18.1297674 20.673785,18.1128837 20.4658879,18.0782791 C20.2578505,18.0445116 20.0554206,17.992186 19.8607009,17.9226977 L20.2993458,16.0555814 C20.396215,16.0847442 20.5100467,16.1147442 20.6426636,16.150186 Z" id="Path"></path>
                    <path d="M33.2163084,14.7711628 L33.2163084,17.9649767 L30.8199533,17.9649767 L30.8199533,3.75990698 L32.8000935,3.75990698 L32.9657944,4.83809302 L33.0506075,4.83809302 C33.4797196,4.47837209 33.9595794,4.16651163 34.4866822,3.90418605 C35.0156075,3.642 35.5635981,3.50986047 36.1338785,3.50986047 C36.7721495,3.50986047 37.3386449,3.63167442 37.8316822,3.87237209 C38.3240187,4.116 38.7448598,4.46344186 39.0929439,4.92083721 C39.4393458,5.37627907 39.7028972,5.92325581 39.8835981,6.55744186 C40.0642991,7.19455814 40.1547196,7.90646512 40.1547196,8.69427907 C40.1547196,9.56553488 40.0323364,10.3430233 39.7895327,11.0289767 C39.5468692,11.7117209 39.2238785,12.286186 38.8211215,12.7477674 C38.4183645,13.2124186 37.9523832,13.5686512 37.4252804,13.8168837 C36.8973364,14.0659535 36.3486449,14.1897209 35.7792056,14.1897209 C35.3349533,14.1897209 34.8897196,14.0933023 34.4454673,13.8992093 C34.001215,13.7070698 33.5701402,13.4299535 33.1542056,13.0702326 L33.2163084,14.7711628 Z M33.2163084,11.3697209 C33.591729,11.6882791 33.9531308,11.9093023 34.300514,12.033907 C34.6469159,12.1576744 34.9743925,12.2194884 35.2792991,12.2194884 C35.9597664,12.2194884 36.5292056,11.926186 36.9883178,11.3386047 C37.4458879,10.7513023 37.675514,9.87725581 37.675514,8.71465116 C37.675514,7.6915814 37.5002804,6.8972093 37.1538785,6.32944186 C36.8066355,5.76251163 36.2447664,5.47883721 35.4653271,5.47883721 C34.7443458,5.47883721 33.9943458,5.86004651 33.216028,6.61995349 L33.216028,11.3697209 L33.2163084,11.3697209 Z" id="Shape" fill-rule="nonzero"></path>
                    <path d="M42.9256542,5.64669767 L41.4677103,5.64669767 L41.4677103,3.86302326 L43.0508411,3.76004651 L43.341729,0.979395349 L45.3426168,0.979395349 L45.3426168,3.76004651 L47.9478505,3.76004651 L47.9478505,5.64669767 L45.3426168,5.64669767 L45.3426168,10.4984651 C45.3426168,11.6882791 45.822757,12.2821395 46.7807944,12.2821395 C46.9606542,12.2821395 47.1441589,12.2624651 47.3324299,12.2194884 C47.5207009,12.1791628 47.6901869,12.1237674 47.8435514,12.0545581 L48.2596262,13.8167442 C47.9819159,13.914 47.6656542,14.000093 47.3118224,14.0761395 C46.9578505,14.151907 46.579486,14.1895814 46.1765888,14.1895814 C45.5788318,14.1895814 45.0754206,14.0995814 44.6660748,13.9205581 C44.2556075,13.7406977 43.9223832,13.4885581 43.6655607,13.1637209 C43.4085981,12.8394419 43.2213084,12.4508372 43.1025701,12.0019535 C42.983972,11.5533488 42.9256542,11.0518605 42.9256542,10.4984651 L42.9256542,5.64669767 Z" id="Path"></path>
                    <path d="M49.2183645,8.86004651 C49.2183645,8.01767442 49.3501402,7.26362791 49.6136916,6.60027907 C49.877243,5.9372093 50.235,5.37613953 50.6866822,4.92069767 C51.1373832,4.46344186 51.6559346,4.11586047 52.2385514,3.87223256 C52.8221495,3.63153488 53.4329439,3.50972093 54.0730374,3.50972093 C54.7111682,3.50972093 55.326729,3.63153488 55.9159346,3.87223256 C56.5069626,4.11586047 57.0236916,4.46330233 57.4679439,4.92069767 C57.9121963,5.37613953 58.2699533,5.9372093 58.5417757,6.60027907 C58.8128972,7.26362791 58.9483178,8.01767442 58.9483178,8.86004651 C58.9483178,9.70297674 58.812757,10.4581395 58.5417757,11.1214884 C58.2699533,11.7848372 57.9121963,12.3449302 57.4679439,12.8002326 C57.0236916,13.2565116 56.5069626,13.602 55.9159346,13.8382326 C55.3268692,14.0732093 54.7111682,14.1895814 54.0730374,14.1895814 C53.4329439,14.1895814 52.8221495,14.0732093 52.2385514,13.8382326 C51.6559346,13.602 51.1373832,13.2563721 50.6866822,12.8002326 C50.2348598,12.3447907 49.877243,11.7848372 49.6136916,11.1214884 C49.3501402,10.4581395 49.2183645,9.70297674 49.2183645,8.86004651 Z M51.6768224,8.86004651 C51.6768224,9.88395349 51.8876636,10.7026047 52.3111682,11.3182326 C52.735514,11.9327442 53.3220561,12.2398605 54.0730374,12.2398605 C54.8221963,12.2398605 55.4133645,11.9327442 55.8434579,11.3182326 C56.2743925,10.7026047 56.49,9.88395349 56.49,8.86004651 C56.49,7.82386047 56.2743925,6.99837209 55.8434579,6.38218605 C55.4133645,5.76739535 54.8221963,5.45944186 54.0730374,5.45944186 C53.3220561,5.45944186 52.735514,5.76739535 52.3111682,6.38218605 C51.8876636,6.99837209 51.6768224,7.82386047 51.6768224,8.86004651 Z" id="Shape" fill-rule="nonzero"></path>
                    <path d="M61.9697664,10.5611163 C62.4573364,11.0165581 63.0107944,11.3874419 63.6357477,11.6694419 C64.2625234,11.9531163 64.8932243,12.0946047 65.531215,12.0946047 C66.2973364,12.0946047 66.882757,11.9362326 67.2930841,11.6187907 C67.7015888,11.3002326 67.9066822,10.8796744 67.9066822,10.3532093 C67.9066822,10.0769302 67.8560748,9.84167442 67.7523364,9.64786047 C67.6469159,9.45572093 67.5,9.28506977 67.3138318,9.14009302 C67.1254206,8.99483721 66.8995794,8.85990698 66.6361682,8.73613953 C66.3724766,8.61153488 66.0883178,8.48706977 65.783271,8.36330233 L63.9273364,7.55274419 C63.5942523,7.41613953 63.261028,7.24283721 62.9278037,7.03465116 C62.5945794,6.82786047 62.2992056,6.57948837 62.0430841,6.28897674 C61.7851402,5.99874419 61.5762617,5.65939535 61.416028,5.2735814 C61.2580374,4.88469767 61.1770093,4.44265116 61.1770093,3.9452093 C61.1770093,3.40646512 61.293785,2.90525581 61.5214486,2.44144186 C61.751215,1.97874419 62.065514,1.57395349 62.4702336,1.22734884 C62.8713084,0.883674419 63.3513084,0.613953488 63.9085514,0.419023256 C64.4618692,0.226883721 65.073785,0.129627907 65.7399533,0.129627907 C66.5457477,0.129627907 67.3174766,0.284093023 68.0534579,0.597069767 C68.7895794,0.907255814 69.4221028,1.32586047 69.9490654,1.85037209 L68.6991589,3.38497674 C68.2679439,3.02525581 67.8142991,2.74130233 67.3342991,2.53632558 C66.8542991,2.32813953 66.3235514,2.2232093 65.7399533,2.2232093 C65.0868224,2.2232093 64.5710748,2.36567442 64.1889252,2.64865116 C63.8067757,2.93260465 63.6166822,3.324 63.6166822,3.81976744 C63.6166822,4.08390698 63.6731776,4.30786047 63.7917757,4.49511628 C63.910514,4.68069767 64.0703271,4.84827907 64.2719159,4.99269767 C64.4732243,5.13767442 64.7067757,5.26981395 64.9683645,5.38590698 C65.2338785,5.50423256 65.5048598,5.61725581 65.783271,5.72902326 L67.6167757,6.49702326 C68.0196729,6.66195349 68.3904673,6.85590698 68.7294393,7.07693023 C69.0700935,7.29795349 69.3619626,7.55274419 69.6065888,7.84325581 C69.8492523,8.13376744 70.0358411,8.47004651 70.1674766,8.84944186 C70.2992523,9.23065116 70.3671028,9.6692093 70.3671028,10.1673488 C70.3671028,10.7192093 70.2541121,11.2392558 70.0319159,11.7216279 C69.8098598,12.2059535 69.4878505,12.6313953 69.064486,12.9976744 C68.6409813,13.3639535 68.1270561,13.6544651 67.5228505,13.8689302 C66.9166822,14.0825581 66.2334112,14.1894419 65.4691121,14.1894419 C64.5543925,14.1894419 63.6696729,14.0169767 62.824486,13.6713488 C61.9773364,13.3265581 61.2263551,12.8355349 60.5749065,12.1993953 L61.9697664,10.5611163 Z" id="Path"></path>
                    <path d="M71.9503738,8.86004651 C71.9503738,8.01767442 72.0895794,7.26362791 72.3663084,6.60027907 C72.6431776,5.9372093 73.0195794,5.37613953 73.4920093,4.92069767 C73.9644393,4.46344186 74.5085047,4.11586047 75.1278505,3.87223256 C75.7452336,3.63153488 76.3947196,3.50972093 77.076028,3.50972093 C77.7423364,3.50972093 78.3222897,3.62497674 78.8153271,3.85255814 C79.3066822,4.0804186 79.7283645,4.36032558 80.0746262,4.69297674 L78.9281776,6.20693023 C78.6514486,5.97069767 78.3747196,5.78804651 78.0961682,5.65590698 C77.8174766,5.52488372 77.5201402,5.45944186 77.1999533,5.45944186 C76.3662617,5.45944186 75.692243,5.76739535 75.1783178,6.38218605 C74.6645327,6.99837209 74.4085514,7.82386047 74.4085514,8.86004651 C74.4085514,9.88395349 74.6607477,10.7026047 75.1669626,11.3182326 C75.6752804,11.9327442 76.3303738,12.2398605 77.1379907,12.2398605 C77.5540654,12.2398605 77.9398598,12.1537674 78.2938318,11.9811628 C78.6475234,11.8081395 78.963785,11.6056744 79.2426168,11.3695814 L80.2420093,12.8824186 C79.7564019,13.3116279 79.2199065,13.6375814 78.6364486,13.8586047 C78.0548131,14.0796279 77.4710748,14.1894419 76.8876168,14.1894419 C76.1929907,14.1894419 75.5435047,14.0730698 74.9394393,13.838093 C74.3350935,13.6018605 73.8099533,13.2562326 73.3657009,12.800093 C72.9214486,12.3446512 72.5732243,11.7846977 72.3246729,11.1213488 C72.0744393,10.4581395 71.9503738,9.70297674 71.9503738,8.86004651 Z" id="Path"></path>
                    <path d="M81.5956542,11.203814 C81.5956542,10.1115349 82.0756542,9.26832558 83.0338318,8.67446512 C83.9918692,8.07948837 85.5204673,7.66451163 87.6173832,7.43037209 C87.6173832,7.16706977 87.5835981,6.91423256 87.5139252,6.6724186 C87.4442523,6.43060465 87.3350467,6.21725581 87.1900935,6.02986047 C87.0433178,5.84344186 86.8568692,5.69930233 86.6290654,5.59437209 C86.3976168,5.49111628 86.1096729,5.4387907 85.763271,5.4387907 C85.2473832,5.4387907 84.7523832,5.5352093 84.2723832,5.72930233 C83.7942056,5.92311628 83.3329907,6.15823256 82.8887383,6.43465116 L82.0135514,4.83823256 C82.5820093,4.47851163 83.2163551,4.16665116 83.9184112,3.90432558 C84.6206075,3.64213953 85.3811215,3.51 86.2017757,3.51 C87.491215,3.51 88.451215,3.88660465 89.0743458,4.6407907 C89.7011215,5.39302326 90.0135981,6.48362791 90.0135981,7.90646512 L90.0135981,13.9416279 L88.0542056,13.9416279 L87.8678972,12.8210233 L87.8057944,12.8210233 C87.3465421,13.2090698 86.8570093,13.5332093 86.3357944,13.7963721 C85.8141589,14.0596744 85.2476636,14.1898605 84.6378505,14.1898605 C83.7343458,14.1898605 83.0020093,13.918186 82.4409813,13.3709302 C81.8781308,12.8256279 81.5956542,12.1031163 81.5956542,11.203814 Z M83.9299065,11.0165581 C83.9299065,11.4735349 84.0654673,11.8043721 84.3364486,12.0124186 C84.6075701,12.2194884 84.9556542,12.3244186 85.3868692,12.3244186 C85.8046262,12.3244186 86.1867757,12.2268837 86.5331776,12.033907 C86.8814019,11.839814 87.2429439,11.5635349 87.6173832,11.203814 L87.6173832,8.92186047 C86.9209346,9.00530233 86.3392991,9.11665116 85.8668692,9.25437209 C85.3942991,9.39306977 85.0159346,9.54837209 84.7316355,9.71986047 C84.445514,9.89427907 84.2423832,10.0918605 84.1180374,10.3128837 C83.9918692,10.534186 83.9299065,10.7683256 83.9299065,11.0165581 Z" id="Shape" fill-rule="nonzero"></path>
                    <path d="M92.9296262,3.75990698 L94.9079439,3.75990698 L95.0754673,5.14813953 L95.1583178,5.14813953 C95.5892523,4.69297674 96.0580374,4.3052093 96.5643925,3.98748837 C97.0707477,3.66809302 97.6449533,3.50972093 98.2830841,3.50972093 C99.0340654,3.50972093 99.6347664,3.66809302 100.086449,3.98748837 C100.538271,4.3052093 100.880748,4.75381395 101.117804,5.33372093 C101.603551,4.80906977 102.109766,4.37330233 102.638832,4.02781395 C103.165935,3.68302326 103.757103,3.50972093 104.410234,3.50972093 C105.492757,3.50972093 106.292664,3.85911628 106.806589,4.55818605 C107.320374,5.25502326 107.576355,6.25381395 107.576355,7.55302326 L107.576355,13.9413488 L105.159533,13.9413488 L105.159533,7.86613953 C105.159533,7.02181395 105.029579,6.42795349 104.773598,6.08134884 C104.517617,5.73572093 104.124112,5.56325581 103.595327,5.56325581 C102.959019,5.56325581 102.243645,5.98562791 101.451168,6.828 L101.451168,13.9413488 L99.0548131,13.9413488 L99.0548131,7.86613953 C99.0548131,7.02181395 98.9269626,6.42795349 98.6690187,6.08134884 C98.4130374,5.73572093 98.0119626,5.56325581 97.4716822,5.56325581 C96.8318692,5.56325581 96.1163551,5.98562791 95.3258411,6.828 L95.3258411,13.9413488 L92.929486,13.9413488 L92.929486,3.75990698 L92.9296262,3.75990698 Z" id="Path"></path>
                    <path d="M110.682477,0.378976744 L114.307991,0.378976744 C116.391729,0.378976744 118.018178,0.938232558 119.192804,2.05855814 C120.365467,3.17916279 120.95285,4.85804651 120.95285,7.09786047 C120.95285,8.21818605 120.80229,9.20553488 120.504953,10.0626977 C120.205654,10.9201395 119.774579,11.6356744 119.213551,12.21 C118.650701,12.7833488 117.965607,13.2153488 117.159953,13.5055814 C116.356262,13.796093 115.445187,13.9413488 114.430514,13.9413488 L110.682617,13.9413488 L110.682617,0.378976744 L110.682477,0.378976744 Z M114.138505,11.9916279 C115.527757,11.9916279 116.596963,11.5953488 117.348084,10.7990233 C118.099065,10.003814 118.473785,8.77004651 118.473785,7.09786047 C118.473785,5.43865116 118.095421,4.22846512 117.338551,3.46939535 C116.58,2.70795349 115.514579,2.32827907 114.138505,2.32827907 L113.097617,2.32827907 L113.097617,11.9916279 L114.138505,11.9916279 Z" id="Shape" fill-rule="nonzero"></path>
                    <path d="M123.661682,0.378976744 L128.015607,0.378976744 C128.708271,0.378976744 129.355935,0.438139535 129.954533,0.555069767 C130.551308,0.673116279 131.065234,0.858697674 131.494346,1.11544186 C131.92528,1.37106977 132.26243,1.71223256 132.505093,2.14130233 C132.747897,2.57023256 132.87028,3.09488372 132.87028,3.71790698 C132.87028,4.36702326 132.682009,4.96967442 132.30743,5.52125581 C131.93271,6.07506977 131.341682,6.45544186 130.537991,6.66237209 L130.537991,6.74497674 C131.522383,6.91074419 132.279112,7.26 132.808037,7.79316279 C133.33514,8.32534884 133.598692,9.0475814 133.598692,9.96 C133.598692,10.6374419 133.467056,11.2247442 133.203505,11.722186 C132.939953,12.2197674 132.574766,12.6357209 132.109766,12.9662791 C131.644907,13.2990698 131.091308,13.5453488 130.453318,13.7037209 C129.815327,13.862093 129.118598,13.9416279 128.369579,13.9416279 L123.661682,13.9416279 L123.661682,0.378976744 Z M127.785981,5.99902326 C128.744159,5.99902326 129.435,5.82572093 129.858505,5.47897674 C130.282009,5.13502326 130.494673,4.64427907 130.494673,4.00702326 C130.494673,3.38511628 130.276262,2.93539535 129.837617,2.65911628 C129.400935,2.38353488 128.738271,2.24595349 127.849766,2.24595349 L126.078505,2.24595349 L126.078505,5.99888372 L127.785981,5.99888372 L127.785981,5.99902326 Z M128.119206,12.0750698 C129.118738,12.0750698 129.888645,11.887814 130.421355,11.5149767 C130.955888,11.1410233 131.223364,10.5676744 131.223364,9.79283721 C131.223364,9.08944186 130.959813,8.56562791 130.43271,8.22851163 C129.905607,7.88916279 129.133738,7.72074419 128.119206,7.72074419 L126.078645,7.72074419 L126.078645,12.0749302 L128.119206,12.0749302 L128.119206,12.0750698 Z" id="Shape" fill-rule="nonzero"></path>
                </g>
            </g>
        </g>
    </g>
</svg>